<svg width="56" height="56" viewBox="0 0 56 56" fill="none" xmlns="http://www.w3.org/2000/svg">
<rect width="56" height="56" rx="8" fill="#B5DEE2"/>
<path d="M28 14.001C20.2735 14.001 14 20.2743 14 28.0005C14 35.7267 20.2735 42 28 42C35.7265 42 42 35.7267 42 28.0005C42 25.8531 41.5141 23.8181 40.6483 21.9987L39.2583 23.3886C38.9959 23.6526 38.638 23.8014 38.2658 23.8015H37.8793C38.4294 25.0918 38.7342 26.5107 38.7342 28.0005C38.7342 33.9226 33.9223 38.7343 28 38.7343C22.0777 38.7343 17.2658 33.9226 17.2658 28.0005C17.2658 22.0783 22.0777 17.2665 28 17.2665C29.4901 17.2665 30.9094 17.5712 32.2 18.1215V17.735C32.2001 17.3628 32.3489 17.005 32.6129 16.7425L34.002 15.3526C32.1824 14.4869 30.1475 14.001 28 14.001ZM36.8539 14.001C36.7345 14.0045 36.6209 14.0537 36.5367 14.1385L33.271 17.4041C33.2274 17.4475 33.1927 17.4991 33.1691 17.5558C33.1455 17.6126 33.1333 17.6735 33.1333 17.735V20.8093L26.971 26.9714C26.4061 27.5363 26.4061 28.4672 26.971 29.0321C27.5359 29.597 28.4641 29.5943 29.029 29.0286L35.1905 22.8673H38.2658C38.3273 22.8673 38.3881 22.8552 38.4449 22.8316C38.5017 22.808 38.5532 22.7734 38.5966 22.7298L41.8624 19.4641C41.9273 19.3988 41.9715 19.3156 41.9893 19.2252C42.0071 19.1348 41.9977 19.0411 41.9623 18.956C41.9269 18.8709 41.8671 18.7981 41.7904 18.747C41.7138 18.6958 41.6237 18.6685 41.5315 18.6685H39.3896L39.7615 18.2966C40.3264 17.7317 40.3291 16.8035 39.7643 16.2386C39.4818 15.9562 39.1074 15.8148 38.7334 15.8148C38.3595 15.8148 37.9859 15.9562 37.7035 16.2386L37.3325 16.6096V14.465C37.3323 14.4028 37.3196 14.3414 37.2953 14.2842C37.271 14.227 37.2356 14.1753 37.191 14.132C37.1464 14.0887 37.0936 14.0547 37.0358 14.0321C36.9779 14.0094 36.9161 13.9986 36.854 14.0001L36.8539 14.001ZM28 20.5322C23.8818 20.5322 20.5315 23.8824 20.5315 28.0005C20.5315 32.1185 23.8818 35.4651 28 35.4651C32.1182 35.4651 35.4648 32.1185 35.4648 28.0005C35.4648 26.8124 35.1799 25.692 34.6846 24.6938L32.128 27.2503C32.1723 27.4941 32.1991 27.7441 32.1991 28.0005C32.1991 30.3145 30.3141 32.1994 28 32.1994C25.6859 32.1994 23.8009 30.3145 23.8009 28.0005C23.8009 25.6865 25.6859 23.8015 28 23.8015C28.2563 23.8015 28.5063 23.8283 28.7501 23.8726L31.3077 21.3151C30.3094 20.8188 29.1889 20.5322 28 20.5322L28 20.5322Z" fill="white"/>
</svg>
