<svg width="56" height="56" viewBox="0 0 56 56" fill="none" xmlns="http://www.w3.org/2000/svg">
<rect width="56" height="56" rx="8" fill="url(#paint0_linear_1912_1819)"/>
<g clip-path="url(#clip0_1912_1819)">
<path d="M28 28.875C26.9616 28.875 25.9466 28.5671 25.0833 27.9902C24.2199 27.4133 23.547 26.5934 23.1496 25.6341C22.7523 24.6748 22.6483 23.6192 22.8509 22.6008C23.0535 21.5824 23.5535 20.6469 24.2877 19.9127C25.0219 19.1785 25.9574 18.6785 26.9758 18.4759C27.9942 18.2733 29.0498 18.3773 30.0091 18.7746C30.9684 19.172 31.7883 19.8449 32.3652 20.7083C32.9421 21.5716 33.25 22.5867 33.25 23.625C33.25 25.0174 32.6969 26.3527 31.7123 27.3373C30.7277 28.3219 29.3924 28.875 28 28.875ZM28 20.125C27.3078 20.125 26.6311 20.3303 26.0555 20.7149C25.4799 21.0994 25.0313 21.6461 24.7664 22.2856C24.5015 22.9252 24.4322 23.6289 24.5673 24.3078C24.7023 24.9868 25.0356 25.6104 25.5251 26.0999C26.0146 26.5894 26.6383 26.9227 27.3172 27.0578C27.9961 27.1928 28.6999 27.1235 29.3394 26.8586C29.9789 26.5937 30.5256 26.1451 30.9101 25.5695C31.2947 24.9939 31.5 24.3172 31.5 23.625C31.5 22.6967 31.1313 21.8065 30.4749 21.1501C29.8185 20.4938 28.9283 20.125 28 20.125Z" fill="white"/>
<path d="M28.0001 41.125C26.0597 41.1237 24.1438 40.6922 22.3902 39.8616C20.6366 39.0309 19.089 37.8218 17.8588 36.3212L17.4038 35.7612L17.8588 35.21C19.09 33.7114 20.6381 32.5043 22.3916 31.6755C24.1451 30.8467 26.0605 30.4169 28.0001 30.4169C29.9396 30.4169 31.855 30.8467 33.6085 31.6755C35.362 32.5043 36.9101 33.7114 38.1413 35.21L38.5963 35.7612L38.1413 36.3212C36.9111 37.8218 35.3635 39.0309 33.6099 39.8616C31.8564 40.6922 29.9404 41.1237 28.0001 41.125ZM19.6963 35.77C20.7605 36.9093 22.0475 37.8176 23.4775 38.4386C24.9075 39.0597 26.4498 39.3801 28.0088 39.3801C29.5678 39.3801 31.1102 39.0597 32.5401 38.4386C33.9701 37.8176 35.2571 36.9093 36.3213 35.77C35.2571 34.6307 33.9701 33.7224 32.5401 33.1013C31.1102 32.4803 29.5678 32.1598 28.0088 32.1598C26.4498 32.1598 24.9075 32.4803 23.4775 33.1013C22.0475 33.7224 20.7605 34.6307 19.6963 35.77Z" fill="white"/>
<path d="M28 41.125C25.0186 41.127 22.1254 40.1139 19.7966 38.2525C17.4677 36.3911 15.842 33.7922 15.1869 30.8837C14.5319 27.9752 14.8866 24.9304 16.1926 22.2503C17.4987 19.5703 19.6782 17.4147 22.3726 16.1385C25.067 14.8622 28.1155 14.5412 31.0166 15.2285C33.9177 15.9157 36.4983 17.5701 38.3338 19.9194C40.1694 22.2688 41.1503 25.173 41.1153 28.1541C41.0803 31.1353 40.0314 34.0157 38.1412 36.3213C36.911 37.8218 35.3634 39.0309 33.6099 39.8616C31.8563 40.6922 29.9403 41.1237 28 41.125ZM28 16.625C25.7502 16.625 23.551 17.2921 21.6804 18.542C19.8098 19.7919 18.3518 21.5685 17.4908 23.647C16.6299 25.7255 16.4046 28.0126 16.8435 30.2192C17.2824 32.4257 18.3658 34.4525 19.9566 36.0433C21.5475 37.6342 23.5743 38.7175 25.7808 39.1564C27.9874 39.5953 30.2745 39.3701 32.353 38.5091C34.4315 37.6482 36.208 36.1902 37.4579 34.3196C38.7078 32.449 39.375 30.2498 39.375 28C39.375 24.9832 38.1765 22.0899 36.0433 19.9567C33.9101 17.8234 31.0168 16.625 28 16.625Z" fill="white"/>
<path d="M18.5327 35.77C18.5327 35.77 27.344 45.6137 36.3127 36.75L37.4677 35.77C37.4677 35.77 29.9777 28 22.374 32.6637L18.5327 35.77Z" fill="white"/>
<path d="M28 28C30.4162 28 32.375 26.0412 32.375 23.625C32.375 21.2088 30.4162 19.25 28 19.25C25.5838 19.25 23.625 21.2088 23.625 23.625C23.625 26.0412 25.5838 28 28 28Z" fill="white"/>
</g>
<defs>
<linearGradient id="paint0_linear_1912_1819" x1="3.93136e-06" y1="-11.3077" x2="71.3369" y2="-7.06038" gradientUnits="userSpaceOnUse">
<stop stop-color="#FFC33E"/>
<stop offset="1" stop-color="#FFC84F"/>
</linearGradient>
<clipPath id="clip0_1912_1819">
<rect width="28" height="28" fill="white" transform="translate(14 14)"/>
</clipPath>
</defs>
</svg>
