<svg width="56" height="56" viewBox="0 0 56 56" fill="none" xmlns="http://www.w3.org/2000/svg">
<rect width="56" height="56" rx="8" fill="#BEDA7F"/>
<path d="M40.014 27.3875L38.369 25.5763L39.0865 23.2138C39.1604 22.9989 39.1478 22.7638 39.0515 22.558C38.9551 22.3523 38.7825 22.1921 38.5702 22.1113L36.3127 21.2363L35.9627 18.795C35.9518 18.6799 35.9181 18.5681 35.8637 18.466C35.8093 18.364 35.7352 18.2737 35.6457 18.2005C35.5562 18.1273 35.4531 18.0725 35.3423 18.0394C35.2315 18.0063 35.1152 17.9954 35.0002 18.0075L32.5852 18.1913L31.2552 16.1438C31.1317 15.9594 30.9429 15.8289 30.7268 15.7786C30.5108 15.7282 30.2837 15.7618 30.0915 15.8725L28.0002 17.115L25.909 15.8725C25.7167 15.7618 25.4896 15.7282 25.2736 15.7786C25.0575 15.8289 24.8687 15.9594 24.7452 16.1438L23.389 18.1913L21.0002 18.0075C20.779 17.9921 20.5603 18.0612 20.3881 18.2009C20.2159 18.3406 20.1032 18.5404 20.0727 18.76L19.6877 21.21L17.4302 22.085C17.2179 22.1658 17.0453 22.326 16.9489 22.5318C16.8526 22.7375 16.84 22.9727 16.914 23.1875L17.6315 25.55L15.9865 27.3875C15.8261 27.5511 15.7363 27.771 15.7363 28C15.7363 28.229 15.8261 28.449 15.9865 28.6125L17.6315 30.4238L16.914 32.7863C16.84 33.0011 16.8526 33.2363 16.9489 33.442C17.0453 33.6478 17.2179 33.808 17.4302 33.8888L19.6877 34.7638L20.0377 37.205C20.0486 37.3201 20.0823 37.432 20.1367 37.534C20.1911 37.636 20.2652 37.7263 20.3547 37.7995C20.4442 37.8727 20.5473 37.9275 20.6581 37.9606C20.7689 37.9938 20.8852 38.0046 21.0002 37.9925L23.4152 37.8088L24.7715 39.8563C24.8507 39.9766 24.9585 40.0756 25.0852 40.1442C25.2119 40.2129 25.3536 40.2493 25.4977 40.25C25.6518 40.2484 25.8027 40.2062 25.9352 40.1275L28.0002 38.885L30.0915 40.1275C30.2837 40.2382 30.5108 40.2718 30.7268 40.2215C30.9429 40.1711 31.1317 40.0406 31.2552 39.8563L32.6115 37.8088L35.0265 37.9925C35.2476 38.0079 35.4664 37.9388 35.6386 37.7991C35.8107 37.6594 35.9235 37.4596 35.954 37.24L36.3127 34.79L38.5702 33.915C38.7825 33.8342 38.9551 33.674 39.0515 33.4683C39.1478 33.2625 39.1604 33.0273 39.0865 32.8125L38.369 30.45L40.014 28.6388C40.0973 28.5573 40.1635 28.46 40.2087 28.3525C40.2539 28.2451 40.2772 28.1297 40.2772 28.0131C40.2772 27.8966 40.2539 27.7812 40.2087 27.6738C40.1635 27.5663 40.0973 27.469 40.014 27.3875ZM33.014 24.9988L26.994 32.165C26.9136 32.2615 26.8134 32.3396 26.7001 32.394C26.5869 32.4484 26.4633 32.4777 26.3377 32.48H26.294C26.1626 32.4727 26.0346 32.4358 25.9195 32.3722C25.8043 32.3086 25.705 32.2198 25.629 32.1125L22.8902 28.2538C22.818 28.16 22.7656 28.0525 22.7361 27.9379C22.7066 27.8233 22.7007 27.7039 22.7187 27.5869C22.7367 27.47 22.7782 27.3579 22.8408 27.2574C22.9034 27.157 22.9857 27.0703 23.0827 27.0025C23.1757 26.9345 23.2812 26.8855 23.3932 26.8583C23.5051 26.8312 23.6214 26.8264 23.7352 26.8443C23.849 26.8622 23.9582 26.9024 24.0564 26.9626C24.1547 27.0227 24.2401 27.1017 24.3077 27.195L26.3902 30.1438L31.6402 23.835C31.7149 23.7477 31.806 23.6759 31.9085 23.6238C32.0109 23.5717 32.1226 23.5403 32.2371 23.5314C32.3517 23.5224 32.4669 23.5361 32.5762 23.5717C32.6854 23.6073 32.7866 23.6641 32.874 23.7388C32.9703 23.8085 33.0514 23.8972 33.1123 23.9994C33.1732 24.1015 33.2127 24.2151 33.2282 24.333C33.2438 24.4509 33.2351 24.5708 33.2028 24.6852C33.1705 24.7997 33.1152 24.9064 33.0402 24.9988H33.014Z" fill="white"/>
</svg>
