<svg width="56" height="56" viewBox="0 0 56 56" fill="none" xmlns="http://www.w3.org/2000/svg">
<rect width="56" height="56" rx="8" fill="#343434"/>
<g clip-path="url(#clip0_1912_1834)">
<path d="M41.4526 21.0194L28.2729 16.3692C28.0964 16.3069 27.9037 16.3069 27.7271 16.3692L14.5474 21.0194C14.2197 21.135 14.0004 21.4445 14 21.792C13.9996 22.1395 14.2181 22.4495 14.5456 22.5659L27.7253 27.2513C27.8141 27.2829 27.9071 27.2988 28 27.2988C28.093 27.2988 28.1859 27.2829 28.2747 27.2513L41.4544 22.5659C41.7819 22.4495 42.0004 22.1395 42 21.792C41.9996 21.4445 41.7803 21.135 41.4526 21.0194Z" fill="white"/>
<path d="M40.0298 31.9689V24.8136L38.3892 25.3968V31.9689C37.895 32.2533 37.562 32.7862 37.562 33.3974C37.562 34.0085 37.895 34.5414 38.3892 34.8259V38.8572C38.3892 39.3102 38.7564 39.6775 39.2095 39.6775C39.6625 39.6775 40.0298 39.3102 40.0298 38.8572V34.8259C40.5239 34.5415 40.8569 34.0085 40.8569 33.3974C40.8569 32.7863 40.524 32.2533 40.0298 31.9689Z" fill="white"/>
<path d="M28.0001 28.9394C27.7185 28.9394 27.4412 28.8915 27.1758 28.7972L19.7666 26.1631V29.773C19.7666 30.6561 20.6879 31.403 22.505 31.9927C24.0888 32.5068 26.0404 32.7899 28.0001 32.7899C29.9599 32.7899 31.9114 32.5068 33.4953 31.9927C35.3123 31.403 36.2337 30.6561 36.2337 29.773V26.1631L28.8245 28.7972C28.559 28.8915 28.2817 28.9394 28.0001 28.9394Z" fill="white"/>
</g>
<defs>
<clipPath id="clip0_1912_1834">
<rect width="28" height="28" fill="white" transform="translate(14 14)"/>
</clipPath>
</defs>
</svg>
